<?xml version="1.0" encoding="utf-8"?>
<!-- Generator: Adobe Illustrator 23.0.1, SVG Export Plug-In . SVG Version: 6.00 Build 0)  -->
<svg version="1.1" id="Layer_1" xmlns="http://www.w3.org/2000/svg" xmlns:xlink="http://www.w3.org/1999/xlink" x="0px" y="0px"
	 viewBox="0 0 954.1 231.8" style="enable-background:new 0 0 954.1 231.8;" xml:space="preserve">
<style type="text/css">
	.st0{fill:#FFFFFF;}
	.st1{fill:#7FC67E;}
</style>
<g>
	<path class="st0" d="M75.1,72.3H34.4c0.7,3.3,2.5,6,5.2,7.9c2.7,1.9,6.1,2.9,10.2,2.9c2.8,0,5.3-0.4,7.5-1.3c2.2-0.8,4.2-2.1,6-3.9
		l8.3,9c-5.1,5.8-12.5,8.7-22.2,8.7c-6.1,0-11.4-1.2-16.1-3.5c-4.7-2.4-8.3-5.6-10.8-9.9c-2.5-4.2-3.8-9-3.8-14.3
		c0-5.3,1.3-10,3.8-14.3c2.5-4.2,5.9-7.5,10.3-9.9c4.4-2.4,9.3-3.6,14.6-3.6c5.3,0,10,1.1,14.3,3.4c4.3,2.3,7.6,5.5,10,9.8
		c2.4,4.2,3.6,9.2,3.6,14.8C75.4,68.3,75.3,69.7,75.1,72.3z M38.6,55c-2.4,2-3.9,4.7-4.4,8.2h26.5c-0.5-3.4-2-6.1-4.4-8.1
		c-2.4-2-5.3-3-8.8-3C43.9,52,41,53,38.6,55z"/>
	<path class="st0" d="M138.2,41l-22.7,53.8H99.4L76.8,41h16.1l14.9,36.6L123.2,41H138.2z"/>
	<path class="st0" d="M195.5,72.3h-40.7c0.7,3.3,2.5,6,5.2,7.9c2.7,1.9,6.1,2.9,10.2,2.9c2.8,0,5.3-0.4,7.5-1.3
		c2.2-0.8,4.2-2.1,6-3.9l8.3,9c-5.1,5.8-12.5,8.7-22.2,8.7c-6.1,0-11.4-1.2-16.1-3.5c-4.7-2.4-8.3-5.6-10.8-9.9
		c-2.5-4.2-3.8-9-3.8-14.3c0-5.3,1.3-10,3.8-14.3c2.5-4.2,5.9-7.5,10.3-9.9c4.4-2.4,9.3-3.6,14.6-3.6c5.3,0,10,1.1,14.3,3.4
		c4.3,2.3,7.6,5.5,10,9.8c2.4,4.2,3.6,9.2,3.6,14.8C195.8,68.3,195.7,69.7,195.5,72.3z M159,55c-2.4,2-3.9,4.7-4.4,8.2h26.5
		c-0.5-3.4-2-6.1-4.4-8.1c-2.4-2-5.3-3-8.8-3C164.3,52,161.4,53,159,55z"/>
	<path class="st0" d="M255,46.2c4.1,4,6.2,9.9,6.2,17.8v30.8h-15.6V66.4c0-4.3-0.9-7.5-2.8-9.6c-1.9-2.1-4.6-3.1-8.1-3.1
		c-3.9,0-7.1,1.2-9.4,3.6c-2.3,2.4-3.5,6.1-3.5,10.9v26.6h-15.6V41h14.9v6.3c2.1-2.3,4.6-4,7.7-5.3c3.1-1.2,6.4-1.9,10.1-1.9
		C245.5,40.2,250.9,42.2,255,46.2z"/>
	<path class="st0" d="M310,92.2c-1.5,1.1-3.4,2-5.7,2.6c-2.2,0.6-4.6,0.8-7,0.8c-6.4,0-11.4-1.6-14.9-4.9c-3.5-3.3-5.3-8.1-5.3-14.4
		V54.2h-8.3v-12h8.3V29.1h15.6v13.1h13.4v12h-13.4v21.9c0,2.3,0.6,4,1.8,5.3c1.2,1.2,2.8,1.9,5,1.9c2.5,0,4.6-0.7,6.3-2L310,92.2z"
		/>
	<path class="st0" d="M369.5,42.2c3.2-1.3,6.8-2,10.9-2v14.4c-1.7-0.1-2.9-0.2-3.5-0.2c-4.5,0-8,1.3-10.5,3.8
		c-2.5,2.5-3.8,6.3-3.8,11.3v25.4H347V41h14.9v7.1C363.8,45.5,366.3,43.6,369.5,42.2z"/>
	<path class="st0" d="M441.6,72.3H401c0.7,3.3,2.5,6,5.2,7.9c2.7,1.9,6.1,2.9,10.2,2.9c2.8,0,5.3-0.4,7.5-1.3c2.2-0.8,4.2-2.1,6-3.9
		l8.3,9c-5.1,5.8-12.5,8.7-22.2,8.7c-6.1,0-11.4-1.2-16.1-3.5c-4.7-2.4-8.3-5.6-10.8-9.9c-2.5-4.2-3.8-9-3.8-14.3
		c0-5.3,1.3-10,3.8-14.3c2.5-4.2,5.9-7.5,10.3-9.9c4.4-2.4,9.3-3.6,14.7-3.6c5.3,0,10,1.1,14.3,3.4c4.3,2.3,7.6,5.5,10,9.8
		c2.4,4.2,3.7,9.2,3.7,14.8C442,68.3,441.8,69.7,441.6,72.3z M405.1,55c-2.4,2-3.9,4.7-4.4,8.2h26.5c-0.5-3.4-2-6.1-4.4-8.1
		c-2.4-2-5.3-3-8.8-3C410.5,52,407.6,53,405.1,55z"/>
	<path class="st0" d="M507.8,41v44.8c0,9.9-2.6,17.2-7.7,22c-5.1,4.8-12.6,7.2-22.5,7.2c-5.2,0-10.1-0.6-14.8-1.9
		c-4.7-1.3-8.5-3.1-11.6-5.5l6.2-11.2c2.3,1.9,5.1,3.4,8.6,4.4c3.5,1.1,6.9,1.7,10.4,1.7c5.4,0,9.4-1.2,12-3.7
		c2.6-2.4,3.8-6.1,3.8-11v-2.3c-4.1,4.5-9.7,6.7-17,6.7c-4.9,0-9.4-1.1-13.5-3.3c-4.1-2.2-7.3-5.2-9.8-9.1
		c-2.4-3.9-3.6-8.5-3.6-13.6c0-5.1,1.2-9.7,3.6-13.6c2.4-3.9,5.7-7,9.8-9.1c4.1-2.2,8.6-3.3,13.5-3.3c7.8,0,13.7,2.6,17.8,7.7V41
		H507.8z M488.5,75.8c2.6-2.4,4-5.6,4-9.6c0-3.9-1.3-7.1-4-9.5c-2.6-2.4-6-3.6-10.1-3.6c-4.1,0-7.5,1.2-10.2,3.6
		c-2.7,2.4-4,5.6-4,9.5c0,3.9,1.3,7.1,4,9.6c2.7,2.4,6.1,3.6,10.2,3.6C482.5,79.4,485.9,78.2,488.5,75.8z"/>
	<path class="st0" d="M523.1,31c-1.8-1.7-2.7-3.7-2.7-6.2c0-2.5,0.9-4.5,2.7-6.2c1.8-1.7,4.1-2.5,7-2.5c2.9,0,5.2,0.8,7,2.4
		c1.8,1.6,2.7,3.6,2.7,6c0,2.6-0.9,4.8-2.7,6.4c-1.8,1.7-4.1,2.6-7,2.6C527.3,33.5,524.9,32.7,523.1,31z M522.3,41h15.6v53.8h-15.6
		V41z"/>
	<path class="st0" d="M557.4,94c-4.3-1.1-7.7-2.5-10.2-4.1l5.2-11.2c2.4,1.5,5.3,2.8,8.7,3.8c3.4,1,6.7,1.5,10,1.5
		c6.6,0,9.9-1.6,9.9-4.9c0-1.5-0.9-2.6-2.7-3.3c-1.8-0.7-4.6-1.2-8.3-1.7c-4.4-0.7-8-1.4-10.9-2.3c-2.9-0.9-5.4-2.4-7.5-4.6
		c-2.1-2.2-3.2-5.3-3.2-9.4c0-3.4,1-6.4,3-9c2-2.6,4.8-4.7,8.6-6.1c3.8-1.5,8.2-2.2,13.4-2.2c3.8,0,7.6,0.4,11.3,1.3
		c3.8,0.8,6.9,2,9.4,3.5L588.9,56c-4.7-2.7-9.9-4-15.5-4c-3.3,0-5.8,0.5-7.5,1.4c-1.7,0.9-2.5,2.1-2.5,3.6c0,1.7,0.9,2.8,2.7,3.5
		c1.8,0.7,4.7,1.3,8.6,1.9c4.4,0.7,8,1.5,10.8,2.4c2.8,0.8,5.2,2.3,7.3,4.5s3.1,5.3,3.1,9.2c0,3.3-1,6.3-3,8.9s-4.9,4.6-8.8,6
		c-3.8,1.4-8.4,2.1-13.7,2.1C566.1,95.6,561.7,95.1,557.4,94z"/>
	<path class="st0" d="M640.2,92.2c-1.5,1.1-3.4,2-5.7,2.6c-2.2,0.6-4.6,0.8-7,0.8c-6.4,0-11.4-1.6-14.9-4.9
		c-3.5-3.3-5.3-8.1-5.3-14.4V54.2h-8.3v-12h8.3V29.1H623v13.1h13.4v12H623v21.9c0,2.3,0.6,4,1.8,5.3c1.2,1.2,2.8,1.9,5,1.9
		c2.5,0,4.6-0.7,6.3-2L640.2,92.2z"/>
	<path class="st0" d="M671.5,42.2c3.2-1.3,6.8-2,10.9-2v14.4c-1.7-0.1-2.9-0.2-3.5-0.2c-4.5,0-8,1.3-10.5,3.8
		c-2.5,2.5-3.8,6.3-3.8,11.3v25.4H649V41h14.9v7.1C665.8,45.5,668.3,43.6,671.5,42.2z"/>
	<path class="st0" d="M732.3,46.2c4.5,4,6.7,9.9,6.7,17.9v30.7h-14.6v-6.7c-2.9,5-8.4,7.5-16.4,7.5c-4.1,0-7.7-0.7-10.8-2.1
		c-3-1.4-5.3-3.3-7-5.8c-1.6-2.5-2.4-5.3-2.4-8.4c0-5,1.9-8.9,5.6-11.8c3.8-2.9,9.6-4.3,17.5-4.3h12.4c0-3.4-1-6-3.1-7.9
		c-2.1-1.8-5.2-2.8-9.3-2.8c-2.9,0-5.7,0.5-8.5,1.4c-2.8,0.9-5.1,2.1-7,3.6l-5.6-10.9c2.9-2.1,6.5-3.7,10.5-4.8
		c4.1-1.1,8.3-1.7,12.7-1.7C721.5,40.2,727.9,42.2,732.3,46.2z M719,83.3c2.1-1.2,3.5-3.1,4.4-5.5v-5.5h-10.7
		c-6.4,0-9.6,2.1-9.6,6.3c0,2,0.8,3.6,2.3,4.8c1.6,1.2,3.7,1.8,6.5,1.8C714.6,85.1,717,84.5,719,83.3z"/>
	<path class="st0" d="M787.8,92.2c-1.5,1.1-3.4,2-5.7,2.6c-2.2,0.6-4.6,0.8-7,0.8c-6.4,0-11.4-1.6-14.9-4.9
		c-3.5-3.3-5.3-8.1-5.3-14.4V54.2h-8.3v-12h8.3V29.1h15.6v13.1H784v12h-13.4v21.9c0,2.3,0.6,4,1.8,5.3c1.2,1.2,2.8,1.9,5,1.9
		c2.5,0,4.6-0.7,6.3-2L787.8,92.2z"/>
	<path class="st0" d="M797.4,31c-1.8-1.7-2.7-3.7-2.7-6.2c0-2.5,0.9-4.5,2.7-6.2c1.8-1.7,4.1-2.5,7-2.5c2.9,0,5.2,0.8,7,2.4
		c1.8,1.6,2.7,3.6,2.7,6c0,2.6-0.9,4.8-2.7,6.4c-1.8,1.7-4.1,2.6-7,2.6C801.6,33.5,799.2,32.7,797.4,31z M796.6,41h15.6v53.8h-15.6
		V41z"/>
	<path class="st0" d="M837.1,92.1c-4.5-2.4-8-5.6-10.5-9.9c-2.5-4.2-3.8-9-3.8-14.3c0-5.3,1.3-10.1,3.8-14.3c2.5-4.2,6-7.5,10.5-9.8
		c4.5-2.4,9.6-3.6,15.3-3.6c5.7,0,10.7,1.2,15.2,3.6c4.5,2.4,8,5.6,10.5,9.8c2.5,4.2,3.8,9,3.8,14.3c0,5.3-1.3,10.1-3.8,14.3
		c-2.5,4.2-6,7.5-10.5,9.9c-4.5,2.4-9.5,3.5-15.2,3.5C846.7,95.6,841.6,94.4,837.1,92.1z M862.2,78.8c2.6-2.7,3.8-6.3,3.8-10.9
		c0-4.5-1.3-8.1-3.8-10.9c-2.6-2.7-5.9-4-9.9-4s-7.3,1.3-9.9,4c-2.6,2.7-3.9,6.3-3.9,10.9c0,4.5,1.3,8.1,3.9,10.9
		c2.6,2.7,5.9,4,9.9,4S859.6,81.5,862.2,78.8z"/>
	<path class="st0" d="M941.1,46.2c4.1,4,6.2,9.9,6.2,17.8v30.8h-15.6V66.4c0-4.3-0.9-7.5-2.8-9.6c-1.9-2.1-4.6-3.1-8.1-3.1
		c-3.9,0-7.1,1.2-9.4,3.6c-2.3,2.4-3.5,6.1-3.5,10.9v26.6h-15.6V41h14.9v6.3c2.1-2.3,4.6-4,7.7-5.3c3.1-1.2,6.4-1.9,10.1-1.9
		C931.6,40.2,937,42.2,941.1,46.2z"/>
</g>
<g>
	<g>
		<path class="st1" d="M777.1,143.4c4.5,4,6.7,9.9,6.7,17.9V192h-14.6v-6.7c-2.9,5-8.4,7.5-16.4,7.5c-4.1,0-7.7-0.7-10.8-2.1
			c-3-1.4-5.3-3.3-6.9-5.8c-1.6-2.5-2.4-5.3-2.4-8.4c0-5,1.9-8.9,5.7-11.8c3.8-2.9,9.6-4.3,17.4-4.3h12.4c0-3.4-1-6-3.1-7.9
			c-2.1-1.8-5.2-2.8-9.3-2.8c-2.9,0-5.7,0.5-8.4,1.4c-2.8,0.9-5.1,2.1-7.1,3.6l-5.6-10.9c2.9-2.1,6.5-3.7,10.5-4.8
			c4.1-1.1,8.3-1.7,12.7-1.7C766.2,137.4,772.6,139.4,777.1,143.4z M763.7,180.5c2.1-1.2,3.5-3.1,4.4-5.5v-5.5h-10.7
			c-6.4,0-9.6,2.1-9.6,6.3c0,2,0.8,3.6,2.3,4.8c1.6,1.2,3.7,1.8,6.5,1.8C759.3,182.3,761.7,181.7,763.7,180.5z"/>
		<path class="st1" d="M843.3,140.9c4.1,2.3,7.3,5.5,9.7,9.7c2.3,4.2,3.5,9,3.5,14.6c0,5.5-1.2,10.4-3.5,14.5
			c-2.3,4.2-5.5,7.4-9.7,9.7c-4.1,2.3-8.6,3.4-13.6,3.4c-6.9,0-12.3-2.2-16.2-6.5v25.1h-15.6v-73.2h14.9v6.2c3.9-4.7,9.5-7,16.9-7
			C834.6,137.4,839.2,138.6,843.3,140.9z M836.8,176c2.6-2.7,3.9-6.3,3.9-10.9c0-4.5-1.3-8.1-3.9-10.9s-5.8-4-9.8-4s-7.3,1.3-9.8,4
			c-2.6,2.7-3.9,6.3-3.9,10.9c0,4.5,1.3,8.1,3.9,10.9c2.6,2.7,5.8,4,9.8,4S834.2,178.7,836.8,176z"/>
		<path class="st1" d="M912.3,140.9c4.1,2.3,7.3,5.5,9.7,9.7c2.3,4.2,3.5,9,3.5,14.6c0,5.5-1.2,10.4-3.5,14.5
			c-2.3,4.2-5.5,7.4-9.7,9.7c-4.1,2.3-8.6,3.4-13.6,3.4c-6.9,0-12.3-2.2-16.2-6.5v25.1h-15.6v-73.2h14.9v6.2c3.9-4.7,9.5-7,16.9-7
			C903.6,137.4,908.2,138.6,912.3,140.9z M905.8,176c2.6-2.7,3.9-6.3,3.9-10.9c0-4.5-1.3-8.1-3.9-10.9s-5.8-4-9.8-4s-7.3,1.3-9.8,4
			c-2.6,2.7-3.9,6.3-3.9,10.9c0,4.5,1.3,8.1,3.9,10.9c2.6,2.7,5.8,4,9.8,4S903.2,178.7,905.8,176z"/>
		<path class="st1" d="M934.1,190c-1.9-1.9-2.8-4.2-2.8-7c0-2.9,0.9-5.2,2.8-7c1.9-1.8,4.2-2.6,6.9-2.6c2.7,0,5,0.9,6.9,2.6
			c1.9,1.8,2.8,4.1,2.8,7c0,2.8-0.9,5.1-2.8,7c-1.9,1.9-4.2,2.8-6.9,2.8C938.3,192.8,936,191.9,934.1,190z"/>
	</g>
</g>
<polygon style="fill:none;" points="12.9,407.4 0,407.4 0,407.4 12.9,407.4 "/>
</svg>
