<?xml version="1.0" encoding="utf-8"?>
<!-- Generator: Adobe Illustrator 23.0.1, SVG Export Plug-In . SVG Version: 6.00 Build 0)  -->
<svg version="1.1" xmlns="http://www.w3.org/2000/svg" xmlns:xlink="http://www.w3.org/1999/xlink" x="0px" y="0px"
	 viewBox="0 0 2475 1650" style="enable-background:new 0 0 2475 1650;" xml:space="preserve">
<style type="text/css">
	.st0{fill:#C6DBC6;}
	.st1{fill:#A4CCA3;}
	.st2{fill:#69B267;}
	.st3{fill:#8FAF8C;}
	.st4{fill:#7FC67E;}
	.st5{fill:#468945;}
	.st6{fill:#97BA95;}
	.st7{fill:#376B36;}
	.st8{fill:#F2EE72;}
	.st9{fill:url(#SVGID_1_);}
	.st10{fill:url(#SVGID_2_);}
	.st11{fill:url(#SVGID_3_);}
	.st12{fill:url(#SVGID_4_);}
	.st13{fill:url(#SVGID_5_);}
	.st14{fill:url(#SVGID_6_);}
	.st15{fill:url(#SVGID_7_);}
	.st16{fill:url(#SVGID_8_);}
	.st17{fill:url(#SVGID_9_);}
	.st18{fill:#CECB8A;}
	.st19{fill:url(#SVGID_10_);}
	.st20{fill:url(#SVGID_11_);}
	.st21{fill:url(#SVGID_12_);}
	.st22{fill:url(#SVGID_13_);}
	.st23{fill:url(#SVGID_14_);}
	.st24{fill:url(#SVGID_15_);}
	.st25{fill:url(#SVGID_16_);}
	.st26{fill:url(#SVGID_17_);}
	.st27{fill:url(#SVGID_18_);}
	.st28{fill:url(#SVGID_19_);}
	.st29{fill:url(#SVGID_20_);}
	.st30{fill:url(#SVGID_21_);}
	.st31{fill:#C9C353;}
	.st32{fill:url(#SVGID_22_);}
	.st33{fill:url(#SVGID_23_);}
	.st34{fill:#C6C160;}
	.st35{opacity:0.62;fill:#FFFFFF;}
	.st36{fill:url(#SVGID_24_);}
	.st37{fill:url(#SVGID_25_);}
	.st38{fill:url(#SVGID_26_);}
	.st39{fill:#BDD0FB;}
</style>
<g id="Background">
</g>
<g id="Illustration">
	<path class="st0" d="M1887.8,211.6c182.6,112.3-29.5,290.9,95.4,352.1s645.5,270.1,182.5,583.3c-232.4,157.2-499,331.3-867.1,186.2
		c-368.2-145.1-329.9-130.7-607.7,8.1c-277.8,138.8-597.7-19-515.9-241.9c81.8-222.9,147.5-225.3,16.8-353.5
		C61,617.6,220,75.7,686.3,271.9c119.1,50.1,429.7,148,585.6-17.9C1356.3,164.2,1599.2,34.1,1887.8,211.6z"/>
	<path class="st1" d="M482.4,658.8c-12.4,2.7-25.1,8.2-30.3,15.7c-23.7,33.7,5,86.3,13.7,120.2c14.9,58.2,16.7,120.4-1.6,178
		c-19.9,62.5-34.1,124.5-31.8,190.7c1.2,34.1,7.8,70.8,27.2,99.7c36.8,54.7,143.7,36.2,168.7-19.1c19.9-44.1,17.9-94.3,10.2-140.9
		c-13.1-78.4-38.7-154.1-52.2-232.4c-10.4-59.9,6.1-175.8-60.5-207.7C513.5,657.2,495.6,655.9,482.4,658.8z"/>
	<g>
		<path class="st2" d="M520,1388.2c-0.2,0-0.4,0-0.6-0.1c-1-0.3-1.6-1.5-1.3-2.5c62.1-194.1,50.8-374.6,30.3-491.9
			c-22.2-127.1-59.6-209.4-60-210.3c-0.5-1,0-2.2,1-2.6c1-0.5,2.2,0,2.6,1c0.4,0.8,37.9,83.5,60.2,211.1
			c13.1,74.9,18.4,150.5,15.9,224.6c-3.2,92.7-18.7,183.3-46.3,269.3C521.6,1387.7,520.8,1388.2,520,1388.2z"/>
	</g>
	<path class="st1" d="M458,1194.5c-5.8-41.8-34-83.4-53.8-123.5c-10.5-21.2-18.8-42.9-21.9-66.5c-3.1-23.5,0.2-50.8-16.1-70.2
		c-32.9-39.1-73.3-4.9-89.9,36.9c-19.2,48.5-8.6,115.1-5.7,168c1.8,31.9,0.2,65.6,5.5,97.1c8.8,52.1,30.5,83.7,61.6,100.1
		c29.8,15.8,66.3,10,89.9-14.1C448.8,1300.4,467.4,1261.9,458,1194.5z"/>
	<g>
		<path class="st2" d="M406.3,1412.6c-0.9,0-1.8-0.5-2.3-1.4c-0.3-0.6-28.5-58.6-53.8-142.8c-23.4-77.7-48.9-194.2-38-308.1
			c0.1-1.4,1.4-2.4,2.7-2.3c1.4,0.1,2.4,1.4,2.3,2.7c-10.8,113.1,14.6,228.9,37.8,306.1c25.2,83.8,53.3,141.5,53.6,142.1
			c0.6,1.2,0.1,2.7-1.1,3.4C407.1,1412.5,406.7,1412.6,406.3,1412.6z"/>
	</g>
	<g>
		<path class="st2" d="M2088.2,875.5c-9.2-19.2-15.8-39.2-17.3-61c-3.9-55,28.1-105.7,51.6-153c21.6-43.5,37.6-108.4-35.2-102.6
			c-58,4.6-126.3,62.4-134.1,122.8c-9.2,71.4,25.5,161.4-15.7,226.2c-57.6,90.7-99.2,69.9-99.2,223c0,65.4,36.2,101.5,77.7,121.4
			c65.5,31.4,143.6,18.7,195.8-31.8c46.1-44.6,73.5-108.8,64.2-173.2C2166.7,982.1,2115.7,932.8,2088.2,875.5z"/>
		<g>
			<path class="st2" d="M2039.5,1367.8c-1,0-1.9-0.7-2.2-1.7c-36.1-144.1-55.8-274.8-58.4-388.4c-2.1-90.9,6.6-171.2,25.9-238.5
				c33-115.1,84.7-152,86.9-153.6c1-0.7,2.4-0.5,3.1,0.6c0.7,1,0.5,2.4-0.6,3.1c-0.5,0.4-52.9,37.9-85.3,151.7
				c-30,105.2-48.7,298.8,32.7,624c0.3,1.2-0.4,2.4-1.6,2.7C2039.8,1367.8,2039.6,1367.8,2039.5,1367.8z"/>
		</g>
	</g>
	<path class="st3" d="M2146,714.1c-2.8-0.8-5.9-1-9.2-0.6c-18.2,2.1-25.6,21.2-30.9,36.2c-4.6,12.8-10,28.4-7.3,42.3
		c2.9,15,18.9,27.3,30.4,12c13.2-17.3,32.9-43.9,33-66.9C2162.1,725.6,2155.7,716.7,2146,714.1z"/>
	<path class="st1" d="M2336.4,1147.4c7.4-48.9-10.4-105.1-19.2-156.8c-4.7-27.4-6.9-54.5-2.5-82.1c4.4-27.4,17.2-57,5.4-84.3
		c-23.9-55-80.8-30-113.4,11.4c-37.8,48-48.1,126.6-62.5,187c-8.7,36.4-21.7,73.8-26.3,111c-7.6,61.5,6.3,104.2,35.8,133.1
		c28.2,27.7,71.2,33.4,105.8,14.2C2290.7,1263.5,2324.5,1226.3,2336.4,1147.4z"/>
	<g>
		<path class="st2" d="M2206.4,1374.8c-1.1,0-2-0.8-2.2-1.9c-0.1-0.7-12.5-75.4-12.8-178.4c-0.3-95.1,9.9-234.5,60.2-358.8
			c0.5-1.2,1.8-1.7,2.9-1.2c1.2,0.5,1.7,1.8,1.2,2.9c-50,123.6-60.1,262.4-59.8,357c0.3,102.6,12.6,177,12.8,177.7
			c0.2,1.2-0.6,2.4-1.9,2.6C2206.6,1374.8,2206.5,1374.8,2206.4,1374.8z"/>
	</g>
	<path class="st4" d="M1917.4,1326.7c-19.1-193-67-672.4-77.5-742.5c-13.1-88.1-121.1-68.6-121.1-68.6l-23.1,891.3h150.5
		c20.2,0,39.5-8.7,53.1-24C1912.9,1367.5,1919.4,1347.2,1917.4,1326.7z"/>
	<path class="st4" d="M700,1429.3c-47-1-84.3-39.9-83.3-86.9l15.3-723.5c0.8-39.9,32.8-72.2,72.7-73.4l1050.1-31.2
		c31.2-0.9,57,24.2,56.9,55.4l-2.5,829.6c-0.1,29.4-24.2,52.9-53.6,52.3L700,1429.3z"/>
	<path class="st5" d="M632.3,1368.5c-15-0.2-26.4-13.7-24.1-28.6c15.5-98.5,64.1-437.4,48.5-718.8c-0.7-12.8,9.2-23.7,22.1-24.2
		l1054.9-33.7c14.5-0.5,26.6,10.8,27.1,25.3c4.5,118.3,21.2,605.4-0.7,778.6c-1.3,10.5-10.4,18.4-21,18.2L632.3,1368.5z"/>
	<path class="st1" d="M659,1357.4c-14.5-0.2-25.4-13.2-23.1-27.5c14.9-94.8,61.7-420.9,46.7-691.7c-0.7-12.3,8.9-22.8,21.2-23.2
		l1015.2-32.4c13.9-0.4,25.6,10.4,26.1,24.3c4.3,113.8,20.4,582.6-0.6,749.3c-1.3,10.1-10,17.7-20.2,17.5L659,1357.4z"/>
	<path class="st3" d="M1282.9,787l-1.6,73.1c-0.2,11.2,8.7,20.4,19.9,20.4l75,0.4c10.9,0.1,19.9-8.6,20.1-19.6l1.6-76.9
		c0.2-11.6-9.3-20.9-20.9-20.4l-75.1,3.3C1291.5,767.9,1283.1,776.5,1282.9,787z"/>
	<path class="st3" d="M1020.7,879.9l75,0.4c10.9,0.1,19.9-8.7,20.1-19.6l1.4-65.4c0.2-11.5-9.2-20.8-20.7-20.4l-75.1,2.7
		c-10.6,0.4-19,9-19.3,19.6l-1.3,62.3C1000.6,870.7,1009.6,879.9,1020.7,879.9z"/>
	<path class="st3" d="M1086.4,1205.6l-71.3-0.7c-11.9-0.1-21.8,9.4-22,21.4l-1.4,66.8c-0.3,11.9,9,21.8,20.9,22.3l71.3,3
		c12.2,0.5,22.5-9.1,22.7-21.3l1.5-69.1C1108.3,1215.7,1098.6,1205.7,1086.4,1205.6z"/>
	<path class="st3" d="M966.4,1291.4l1.4-65.3c0.3-11.9-9.3-21.8-21.2-21.9l-72.1-0.7c-11.7-0.1-21.4,9.2-21.6,21l-1.3,63
		c-0.2,11.7,8.9,21.4,20.5,21.9l72,3C956.1,1312.9,966.2,1303.5,966.4,1291.4z"/>
	<path class="st3" d="M972.7,996.6l1.1-53.6c0.3-12.9-10.2-23.6-23.1-23.6l-68.8,0.1c-12.5,0-22.8,10.1-23,22.6l-1.1,51.2
		c-0.3,12.6,9.7,23.1,22.3,23.6l68.8,2.3C961.7,1019.6,972.4,1009.4,972.7,996.6z"/>
	<path class="st3" d="M969.4,1152.4l1.7-82c0.3-11.7-9-21.5-20.7-21.9l-70.4-2.3c-12.8-0.4-23.6,9.7-23.8,22.6l-1.8,82.7
		c-0.3,12,9.4,21.9,21.4,21.9l72.1,0C959.6,1173.4,969.1,1164,969.4,1152.4z"/>
	<path class="st3" d="M1161,880.7l75,0.4c10.9,0.1,19.9-8.6,20.1-19.6l1.5-71.2c0.2-11.5-9.2-20.8-20.7-20.4l-75.1,2.7
		c-10.6,0.4-19,9-19.3,19.6l-1.4,68.1C1140.9,871.5,1149.8,880.7,1161,880.7z"/>
	<path class="st3" d="M1109.6,1152l1.6-76.7c0.3-11.9-9.2-21.9-21.1-22.3l-71.3-2.3c-12.1-0.4-22.3,9.2-22.5,21.3l-1.7,79
		c-0.3,12.2,9.6,22.3,21.8,22.3l71.3,0C1099.7,1173.4,1109.4,1163.9,1109.6,1152z"/>
	<path class="st3" d="M1237.9,918.9L1156,919c-9,0-16.3,7.2-16.5,16.2l-1.6,73.8c-0.2,9.1,6.9,16.6,16,16.9l81.8,2.7
		c9.2,0.3,16.9-7,17.1-16.2l1.6-76.6C1254.7,926.5,1247.2,918.9,1237.9,918.9z"/>
	<path class="st3" d="M1279.7,939.1l-1.5,70.2c-0.2,11.4,8.7,20.9,20.1,21.2l73.3,2.4c11.6,0.4,21.2-8.8,21.5-20.3l1.5-72.8
		c0.2-11.7-9.2-21.3-20.8-21.2l-73.4,0.1C1289.1,918.8,1279.9,927.8,1279.7,939.1z"/>
	<path class="st3" d="M1013.8,1021.3l81.8,2.7c9.2,0.3,16.9-7,17.1-16.2l1.5-71.7c0.2-9.3-7.3-16.9-16.6-16.9l-81.9,0.1
		c-9,0-16.3,7.2-16.5,16.2l-1.5,68.9C997.6,1013.4,1004.7,1021,1013.8,1021.3z"/>
	<path class="st3" d="M1230.3,1057.7l-71.3-2.3c-12.1-0.4-22.3,9.2-22.5,21.3l-1.6,74.5c-0.3,12.2,9.6,22.3,21.8,22.3l71.3,0
		c11.9,0,21.6-9.5,21.8-21.4l1.5-72.1C1251.7,1068,1242.3,1058,1230.3,1057.7z"/>
	<path class="st3" d="M1373,1062.3l-76.3-2.5c-10.7-0.4-19.7,8.1-19.9,18.9l-1.6,75c-0.2,10.8,8.5,19.7,19.3,19.7l76.3,0
		c10.5,0,19.1-8.4,19.3-18.9l1.5-72.5C1391.9,1071.5,1383.5,1062.7,1373,1062.3z"/>
	<path class="st3" d="M891,878.2l56.9,0.3c15.1,0.1,27.5-12,27.9-27.1l1-47c0.3-14.2-11.4-25.7-25.6-25.2l-63.3,2.3
		c-14.4,0.5-25.8,12.2-26.1,26.5l-0.8,39.2C860.5,864.2,874,878.1,891,878.2z"/>
	<path class="st3" d="M827.5,1226.4c0.3-12.8-10-23.4-22.8-23.6l-24.8-0.2c-18.8-0.2-34.3,12.3-34.6,28l-1,45.4
		c-0.3,15.6,14.3,28.6,33,29.4l26.6,1.1c12,0.5,22.1-9,22.3-21L827.5,1226.4z"/>
	<path class="st3" d="M1624.8,1210.8l-48.8-0.5c-12-0.1-21.8,9.4-22,21.4l-1.8,85.1c-0.3,11.9,9,21.8,20.9,22.3l48.5,2.1
		c19.4,0.8,35.6-11.8,35.9-27.9l1.5-72.9C1659.4,1224.2,1644,1211,1624.8,1210.8z"/>
	<path class="st3" d="M781.9,1173.3l24.2,0c12.6,0,22.8-10,23.1-22.6l1.8-83.4c0.3-12.6-9.7-23.1-22.3-23.6l-24.4-0.8
		c-19.2-0.6-35.2,11.9-35.5,27.9l-1.5,72.9C746.8,1160,762.5,1173.3,781.9,1173.3z"/>
	<path class="st3" d="M783.9,1013.7l30.5,1c9.7,0.3,17.8-7.4,18-17.1l1.3-60.2c0.2-9.8-7.7-17.8-17.5-17.8l-30.8,0.1
		c-18.7,0-33.8,12.4-34.1,28l-0.8,36.7C750.2,1000,765.1,1013.1,783.9,1013.7z"/>
	<path class="st3" d="M1632.6,754.8l-48.9,1.8c-11,0.4-19.8,9.3-20,20.3l-1.8,84c-0.2,11.6,9.1,21.2,20.7,21.2l50.3,0.3
		c18.8,0.1,34.1-12.3,34.4-28l1.5-70.3C1669.1,767.6,1652.5,754.1,1632.6,754.8z"/>
	<path class="st3" d="M1226.7,1206.9l-71.3-0.7c-11.9-0.1-21.8,9.4-22,21.4l-1.5,71.4c-0.3,11.9,9,21.8,20.9,22.3l71.3,3
		c12.2,0.5,22.5-9.1,22.7-21.3l1.6-73.7C1248.5,1217.1,1238.8,1207.1,1226.7,1206.9z"/>
	<path class="st3" d="M1630.5,918.2l-49.6,0.1c-11.3,0-20.5,9.1-20.8,20.4l-1.7,79.9c-0.2,11.4,8.7,20.9,20.1,21.2l49.8,1.6
		c19.2,0.6,35.2-11.9,35.5-27.9l1.4-65.9C1665.7,931.4,1649.9,918.1,1630.5,918.2z"/>
	<path class="st3" d="M1628.7,1070.7l-51.7-1.7c-10.8-0.4-19.7,8.1-19.9,18.9l-1.4,65.8c-0.2,10.8,8.5,19.7,19.3,19.7l52,0
		c18.7,0,33.9-12.4,34.2-28l1-45.4C1662.4,1084.4,1647.5,1071.3,1628.7,1070.7z"/>
	<path class="st3" d="M1416.9,1083.3l-1.5,70.4c-0.2,10.8,8.5,19.7,19.3,19.7l76.3,0c10.5,0,19.1-8.4,19.3-18.9l1.4-67.9
		c0.2-10.6-8.1-19.4-18.7-19.7l-76.3-2.5C1426.1,1064.1,1417.1,1072.6,1416.9,1083.3z"/>
	<path class="st3" d="M1507.1,1209.7l-71.3-0.7c-12-0.1-21.8,9.4-22,21.4l-1.7,80.5c-0.3,11.9,9,21.8,20.9,22.3l71.2,3
		c12.2,0.5,22.5-9.1,22.8-21.4l1.8-82.8C1529,1219.8,1519.3,1209.8,1507.1,1209.7z"/>
	<path class="st3" d="M787.9,877.6l29.8,0.2c9.5,0.1,17.3-7.6,17.5-17.1l1.2-58.9c0.2-10-8-18.2-18.1-17.8l-31.6,1.1
		c-18.1,0.6-32.4,12.9-32.7,27.9l-0.7,35.1C753.1,864.3,768.6,877.5,787.9,877.6z"/>
	<path class="st3" d="M1366.9,1208.3l-70.1-0.7c-12.6-0.1-23,9.9-23.3,22.6l-1.6,74.7c-0.3,11.9,9,21.8,20.9,22.3l71.2,3
		c12.2,0.5,22.5-9.1,22.8-21.4l1.7-78.2C1388.7,1218.4,1379,1208.4,1366.9,1208.3z"/>
	<path class="st3" d="M1423.3,781.9l-1.7,78.2c-0.2,11.6,9.1,21.2,20.7,21.2l73.4,0.4c11.4,0.1,20.7-9,20.9-20.4l1.7-81.2
		c0.3-11.9-9.6-21.7-21.5-21.2l-73.4,2.6C1432.3,762,1423.5,770.9,1423.3,781.9z"/>
	<path class="st3" d="M1419.9,938.9l-1.6,75.1c-0.2,11.4,8.7,20.9,20.1,21.2l73.3,2.4c11.6,0.4,21.2-8.8,21.5-20.3l1.6-77.6
		c0.2-11.7-9.2-21.3-20.8-21.2l-73.4,0.1C1429.4,918.5,1420.2,927.6,1419.9,938.9z"/>
	<path class="st6" d="M779.8,721.8l3.4,24.8c1.1,7.9,7.8,13.9,15.8,14.1l1.2,0c9,0.2,16.4-6.9,16.6-15.9l0.5-25.3
		c0.2-9.8-8.3-17.6-18-16.5l-5.1,0.6C785,704.5,778.5,712.8,779.8,721.8z"/>
	<path class="st6" d="M894.7,715.5l3.4,24.8c1.1,7.9,7.8,13.9,15.8,14.1l1.2,0c9,0.2,16.4-6.9,16.6-15.9l0.5-25.3
		c0.2-9.8-8.3-17.6-18-16.5l-5.1,0.6C899.9,698.1,893.4,706.4,894.7,715.5z"/>
	<path class="st6" d="M1036.1,717.4l3.4,24.8c1.1,7.9,7.8,13.9,15.8,14.1l1.2,0c9,0.2,16.4-6.9,16.6-15.9l0.5-25.3
		c0.2-9.8-8.3-17.6-18-16.5l-5.1,0.6C1041.3,700,1034.8,708.3,1036.1,717.4z"/>
	<path class="st6" d="M1173.8,711.2l3.4,24.8c1.1,7.9,7.8,13.9,15.8,14.1l1.2,0c9,0.2,16.4-6.9,16.6-15.9l0.5-25.3
		c0.2-9.8-8.3-17.6-18-16.5l-5.1,0.6C1179.1,693.9,1172.6,702.2,1173.8,711.2z"/>
	<path class="st6" d="M1315.3,693.2l3.4,24.8c1.1,7.9,7.8,13.9,15.8,14.1l1.2,0c9,0.2,16.4-6.9,16.6-15.9l0.5-25.3
		c0.2-9.8-8.3-17.6-18-16.5l-5.1,0.6C1320.5,675.9,1314.1,684.2,1315.3,693.2z"/>
	<path class="st6" d="M1465.2,696.4l3.4,24.8c1.1,7.9,7.8,13.9,15.8,14.1l1.2,0c9,0.2,16.4-6.9,16.6-15.9l0.5-25.3
		c0.2-9.8-8.3-17.6-18-16.5l-5.1,0.6C1470.4,679.1,1463.9,687.4,1465.2,696.4z"/>
	<path class="st6" d="M1591.7,693.8l3.4,24.8c1.1,7.9,7.8,13.9,15.8,14.1l1.2,0c9,0.2,16.4-6.9,16.6-15.9l0.5-25.3
		c0.2-9.8-8.3-17.6-18-16.5l-5.1,0.6C1596.9,676.4,1590.5,684.7,1591.7,693.8z"/>
	<g>
		<path class="st5" d="M1811.9,1393c-1.5,0-2.7-1.2-2.7-2.6l-3.2-467.1c0-1.5,1.2-2.7,2.6-2.7c0,0,0,0,0,0c1.5,0,2.7,1.2,2.7,2.6
			l3.2,467.1C1814.5,1391.8,1813.4,1393,1811.9,1393C1811.9,1393,1811.9,1393,1811.9,1393z"/>
		<path class="st5" d="M1807.9,818.7c-1.5,0-2.7-1.2-2.7-2.6l-1.1-163.1c0-1.5,1.2-2.7,2.6-2.7c0,0,0,0,0,0c1.5,0,2.7,1.2,2.7,2.6
			l1.1,163.1C1810.6,817.4,1809.4,818.6,1807.9,818.7C1807.9,818.7,1807.9,818.7,1807.9,818.7z"/>
	</g>
	
		<ellipse transform="matrix(0.9239 -0.3827 0.3827 0.9239 -188.464 358.9618)" class="st5" cx="808.1" cy="653.2" rx="28.5" ry="28.5"/>
	
		<ellipse transform="matrix(0.7071 -0.7071 0.7071 0.7071 -155.3612 926.9804)" class="st5" cx="1041.3" cy="651" rx="28.5" ry="28.5"/>
	
		<ellipse transform="matrix(0.7071 -0.7071 0.7071 0.7071 -80.9967 1091.1841)" class="st5" cx="1276.7" cy="643.4" rx="28.5" ry="28.5"/>
	<circle class="st5" cx="1509.9" cy="632.4" r="28.5"/>
	<g>
		<path class="st2" d="M1531.5,435.2c-47.9,10.4-43.4,136.5-39.5,187.6c0.9,12,10.9,21.3,23,21.3c3.4,0,6.5-1.4,8.8-3.9
			c2.2-2.5,3.3-5.8,3-9.2c-4.1-38.7-12.9-150,22.3-156c0,0,25.3-4.5,29.5,44.5h27.4C1606,519.6,1591.7,422.1,1531.5,435.2z"/>
		<path class="st2" d="M1298.3,441.7c-47.9,10.5-43.4,136.5-39.5,187.7c0.9,12,10.9,21.3,23,21.3c3.4,0,6.5-1.4,8.8-3.9
			c2.2-2.5,3.3-5.8,3-9.2c-4.1-38.7-12.9-150.1,22.3-156.1c0,0,25.3-3.5,29.5,44.4h27.4C1372.8,526,1358.5,428.5,1298.3,441.7z"/>
		<path class="st2" d="M1065.1,448.2c-47.9,10.5-43.4,136.5-39.5,187.7c0.9,12,10.9,21.4,23,21.4c3.4,0,6.5-1.4,8.8-3.9
			c2.2-2.5,3.3-5.8,3-9.2c-4.1-38.7-12.9-150.2,22.3-156.1c0,0,25.3-2.8,29.5,45.3l27.4-1C1139.6,532.4,1125.3,435,1065.1,448.2z"/>
		<path class="st2" d="M831.9,455.7c-47.9,10.5-43.4,136.6-39.5,187.8c0.9,12,10.9,21.4,23,21.4c3.4,0,6.5-1.4,8.8-3.9
			c2.2-2.5,3.3-5.8,3-9.1c-4.1-38.7-12.9-150.3,22.3-156.2c0,0,25.3-3.7,29.5,44.2h27.4C906.4,539.8,892.1,442.6,831.9,455.7z"/>
	</g>
	<path class="st7" d="M2111.4,387.3c-3.1-5-6.7-9.4-10.5-13.7c-1.9-2.2-4-4.1-6-6.2c-2.1-2-4.2-3.9-6.4-5.8
		c-8.7-7.5-18.3-13.9-28.5-19.3c-10.1-5.4-20.7-10-31.7-13.5c-10.9-3.7-22.1-6.1-33.4-8.2c-22.7-3.9-45.8-4.5-68.7-3.1
		c-5.7,0.1-11.4,0.9-17.1,1.5l-8.6,0.9c-2.9,0.3-5.7,0.8-8.5,1.3c-5.7,0.9-11.3,1.7-17,2.7l-16.8,3.5c-5.6,1.1-11.2,2.6-16.7,4
		c-5.5,1.5-11.1,2.8-16.6,4.4l-16.4,5l-8.2,2.5c-2.7,0.9-5.4,1.9-8.1,2.8c-10.8,3.9-21.7,7.4-32.2,11.9l-16,6.4l-4,1.6l-3.9,1.7
		l-7.9,3.5l-15.7,6.9l-3.9,1.7l-3.9,1.9l-7.7,3.7l-15.4,7.5c-2.6,1.3-5.2,2.5-7.7,3.8l-7.6,4l-15.2,8l-7.6,4l-3.8,2l-3.7,2.1
		l-29.9,16.9c-78.6,46.1-161.1,85.3-246.2,117.8c-42.5,16.2-85.7,30.7-129.5,43.3c-21.8,6.4-43.8,12.2-66,17.5
		c-22.1,5.3-44.3,10.2-66.7,14.4c-22.4,4.2-44.8,7.8-67.4,10.8c-22.5,2.9-45.2,5.1-67.9,6.5c-45.3,2.8-91,2.4-136-3.3
		c-44.9-5.7-89.4-16.8-130-36.8c-20.2-10-39.1-22.5-56-37.4c-2.2-1.8-4.2-3.8-6.2-5.7c-2-2-4-3.9-6-5.9l-5.7-6.2l-2.8-3.1
		c-0.9-1.1-1.8-2.2-2.6-3.3l-5.3-6.6c-1.7-2.2-3.2-4.6-4.9-6.9c-3.4-4.5-6.1-9.4-9.1-14.2c-1.5-2.4-2.7-4.9-4.1-7.4
		c-1.3-2.5-2.6-5-3.9-7.5l-3.4-7.7c-1.2-2.6-2.3-5.1-3.2-7.8c-1.9-5.3-4-10.5-5.5-16l-2.4-8.1l-2-8.2c-0.6-2.8-1.4-5.5-1.9-8.3
		l-1.5-8.3c-1.1-5.5-1.7-11.2-2.5-16.8c-1.2-11.2-2.1-22.5-2.2-33.8c-0.1-11.3,0.5-22.6,1.8-33.8c1.3-11.2,3.6-22.3,6.6-33.1
		c6.1-21.7,16-42.3,29.4-60.4c6.7-9.1,14.3-17.5,22.5-25.2c8.3-7.7,17.2-14.7,26.6-20.9c9.4-6.2,19.3-11.8,29.6-16.6
		c10.3-4.8,20.8-9,31.6-12.5c21.6-7,44-11.5,66.6-13.5c11.3-0.9,22.7-1.3,34-0.5c5.7,0.4,11.3,1,16.8,2.1c2.8,0.5,5.5,1.2,8.2,2.1
		c2.6,0.9,5.3,2,7.3,3.7l1.1-1.3c-2.4-1.9-5.1-3.1-7.8-4.1c-2.7-1-5.5-1.7-8.4-2.3c-5.6-1.2-11.4-1.9-17.1-2.3
		c-11.4-0.9-22.9-0.7-34.4,0.1c-22.9,1.7-45.5,6.1-67.4,12.9c-10.9,3.5-21.7,7.6-32.1,12.3c-10.4,4.8-20.5,10.3-30.2,16.6
		c-9.6,6.3-18.8,13.3-27.3,21.1c-8.5,7.8-16.3,16.4-23.3,25.6c-14,18.4-24.3,39.5-30.6,61.7c-3.2,11.1-5.5,22.4-7,33.9
		c-1.4,11.4-2,23-2,34.5c0,11.5,0.9,23,2,34.4c0.8,5.7,1.3,11.4,2.4,17.1l1.5,8.5c0.5,2.8,1.2,5.6,1.9,8.4l2,8.4l2.5,8.3
		c1.5,5.6,3.6,11,5.6,16.4c0.9,2.7,2.1,5.4,3.3,8l3.5,7.9c1.3,2.6,2.6,5.1,3.9,7.7c1.3,2.6,2.6,5.2,4.1,7.6c3,5,5.8,10,9.3,14.7
		c1.7,2.4,3.2,4.8,5,7.1l5.4,6.8c0.9,1.1,1.8,2.3,2.7,3.4l2.9,3.2l5.8,6.5c2,2.1,4.1,4.1,6.2,6.1c2.1,2,4.1,4.1,6.3,5.9
		c17.3,15.4,36.6,28.4,57.2,38.7c20.6,10.3,42.4,18.3,64.5,24.4c22.2,6.1,44.8,10.4,67.6,13.4c45.6,5.8,91.6,6.3,137.3,3.6
		c22.9-1.4,45.7-3.5,68.4-6.5c22.7-2.9,45.3-6.6,67.8-10.7c22.5-4.1,44.9-9,67.1-14.3c22.2-5.3,44.4-11.1,66.3-17.5
		c43.9-12.7,87.3-27.5,130-43.8c85.4-32.8,168.2-72.4,246.9-118.9l29.6-17l3.7-2.1l3.8-2l7.5-4l15.1-8l7.5-4
		c2.5-1.3,5.1-2.5,7.6-3.8l15.3-7.5l7.7-3.8l3.8-1.9l3.9-1.7l15.6-7l7.8-3.5l3.9-1.8l3.9-1.6l15.8-6.4c10.5-4.5,21.2-8.1,31.9-12
		c2.7-0.9,5.3-2,8-2.9l8.1-2.6l16.3-5.1c5.5-1.6,11-3,16.4-4.5c5.5-1.5,11-3,16.5-4.1l16.6-3.6c5.6-1,11.2-1.9,16.8-2.9
		c2.8-0.4,5.6-1,8.4-1.3l8.5-1c5.6-0.6,11.3-1.4,16.9-1.6c22.6-1.7,45.4-1.3,67.8,2.2c11.2,1.9,22.3,4.2,33.1,7.7
		c10.8,3.3,21.3,7.7,31.4,12.9c10.1,5.2,19.6,11.4,28.3,18.6c2.1,1.9,4.3,3.7,6.4,5.6c2,2,4.1,3.9,6,6c3.9,4.1,7.5,8.5,10.5,13.2
		L2111.4,387.3z"/>
	<path class="st5" d="M2048.8,344.1c0,0,1.4,65-13.5,109.6c-1.6,4.9-8,6.1-11.3,2.1c-19.3-23.2-70.9-87.9-79-124.2
		C1944.9,331.6,1991.7,320.5,2048.8,344.1z"/>
	<path class="st8" d="M1911.9,328c0,0,12.7,75.4-12.2,135.2c-1.9,4.6-7.9,5.9-11.5,2.5c-18.7-17.8-68.3-67.4-87.3-112.8
		C1800.9,352.9,1869.7,332.5,1911.9,328z"/>
	<path class="st5" d="M1781.5,360.9c0,0,10.5,71-9.3,129.6c-2,6-9.2,8.4-14.4,4.9c-18-11.7-55.5-40.6-79.2-90.2
		C1678.5,405.1,1732.5,376.6,1781.5,360.9z"/>
	<path class="st8" d="M1669,409.9c0,0,10.9,74.2-13,115.2c-2.4,4.1-7.8,5.3-11.7,2.6c-13.7-9.7-45.2-33.8-66.5-63.2
		C1577.7,464.5,1651.5,419.4,1669,409.9z"/>
	<path class="st5" d="M1563.6,473.4c0,0,17.6,70.8-4.6,111.7c-2.3,4.1-7.5,5.5-11.5,3c-17.1-10.9-61-41-75-70.5
		C1472.6,517.6,1549.5,482.3,1563.6,473.4z"/>
	<path class="st8" d="M1458.3,524.8l-87,36.8c0,0,44.6,67.3,74.8,80.4c3.1,1.4,6.7-0.3,8-3.4C1459.5,624.3,1472.2,582,1458.3,524.8z
		"/>
	<path class="st5" d="M1358.4,566.9c0,0-68.1,25.4-88,30.1c0,0,20.7,53.8,49.9,77.8c4.5,3.7,11.2,2.7,14.3-2.3
		C1344.9,655.6,1365.5,615.1,1358.4,566.9z"/>
	<path class="st8" d="M1257,599c0,0-63.4,23-81.8,25.7c0,0,29,59.5,56.5,92.5c2.1,2.5,6,2.3,7.8-0.4
		C1248.2,703.8,1268.1,665.3,1257,599z"/>
	<path class="st5" d="M1166.8,626c0,0-61.2,14.2-88.3,16.4c0,0,23.1,72.5,57.8,89.5c2.9,1.4,6.5,0.2,8-2.7
		C1151.8,715,1172.1,671.5,1166.8,626z"/>
	<path class="st8" d="M1070.2,643.6c0,0-61.5,12.5-82.1,12.1c0,0,27.2,67.8,54.3,89c4.5,3.5,11,2.7,14.6-1.8
		C1065.3,732.5,1077.1,706.3,1070.2,643.6z"/>
	<path class="st5" d="M973,657.9c0,0-57.7,3.4-74.9,2.5c0,0,4.1,48.3,38,84.8c3.6,3.9,9.8,4,13.5,0.2C959.8,735,977,709.6,973,657.9
		z"/>
	<path class="st8" d="M882.5,659.3c0,0-48.1-1.5-73.1-8.1c0,0-3.9,54.1,23.8,83.7c3.8,4.1,10.1,4.8,14.8,1.8
		C860.1,728.8,881.2,708.2,882.5,659.3z"/>
	<path class="st5" d="M798.9,649.3c0,0-50.1-2.9-67.1-14.1c0,0-5.6,56.6,18.8,90.9c2.1,2.9,6.2,3.4,8.9,1
		C769,718.4,790,694.9,798.9,649.3z"/>
	<path class="st8" d="M721,631.7c0,0-59.7-22-84-47.5c0,0-26.3,66.1,1.9,115.9c1.1,2,3.5,3,5.7,2.4
		C657.8,698.7,702.4,682.3,721,631.7z"/>
	<path class="st5" d="M573.9,504.5c0,0,22.5,48,47.7,68.3c0,0-34.9,47-77.1,58.7c-3.7,1-7.4-1.2-8.3-4.9
		C532.5,609.8,527.6,562,573.9,504.5z"/>
	<path class="st8" d="M549.7,386.6c0,0-2.2,55.1,16,108.9c0,0-32.7,14.8-52.4,39.9c-4.9,6.2-14.8,2.5-14.4-5.4
		C500.5,498.3,510.2,445.9,549.7,386.6z"/>
	<path class="st5" d="M730.6,1459.7c-10.3,0.9-28.2,2.3-42.2,3c-8.5,0.4-13.3-0.5-16.1-1.6c0,0.3,0,0.6,0,0.9
		c0.1,1.5,1.3,2.7,2.8,2.8c26.6,1.5,47.8,0.5,55.3,0.1c1.6-0.1,2.5-1.8,1.7-3.1C731.7,1461,731.2,1460.4,730.6,1459.7z"/>
	<path class="st4" d="M688.4,1462.7c14.1-0.6,31.9-2.1,42.2-3c-10.1-12.4-42.2-20.8-42.2-20.8h-9.1c-6.2,9-7.1,17.6-7.1,22.2
		C675.1,1462.2,680,1463.1,688.4,1462.7z"/>
	<linearGradient id="SVGID_1_" gradientUnits="userSpaceOnUse" x1="677.8174" y1="1434.4392" x2="694.7379" y2="1434.4392">
		<stop  offset="0" style="stop-color:#FF928E"/>
		<stop  offset="1" style="stop-color:#FEB3B1"/>
	</linearGradient>
	<path class="st9" d="M677.8,1424.2l0.8,16.8c0.1,1.8,1.5,3.3,3.3,3.6c1.8,0.3,4.2,0.3,6.8-0.6c1.6-0.5,2.8-1.9,3.1-3.5l2.9-16.4
		H677.8z"/>
	<path class="st5" d="M560,1462.6c-4.5-0.6-6.5-2.9-7.3-5.4c0,0,0,0,0,0.1c-0.7,2.6,0.9,5.3,3.9,6.6c3.7,1.6,7.7,1.8,10.8,1.7
		c3.3-0.1,6.4-1.5,8.1-3.7l0,0C572.2,1463.4,567.5,1463.6,560,1462.6z"/>
	<path class="st4" d="M581.1,1424h-7.5c-11.4-0.2-18.5,23.8-20.9,33.1c0.8,2.5,2.9,4.8,7.3,5.4c7.4,1,12.2,0.8,15.5-0.8
		c6.2-8.1,9.2-20,10.7-26.9C587.9,1427,581.1,1424,581.1,1424z"/>
	<linearGradient id="SVGID_2_" gradientUnits="userSpaceOnUse" x1="570.2463" y1="1420.3335" x2="590.4682" y2="1420.3335">
		<stop  offset="0" style="stop-color:#FF928E"/>
		<stop  offset="1" style="stop-color:#FEB3B1"/>
	</linearGradient>
	<path class="st10" d="M574.5,1408.5l-4.2,16.5c-0.5,2,0.5,4.1,2.3,5.1c2.3,1.2,5.6,2.4,8.6,2.1c1.4-0.2,2.6-1.2,3.1-2.5l6.1-17.4
		L574.5,1408.5z"/>
	<path class="st8" d="M569.6,1413.2c5.2,4.6,22,5.2,22,5.2c60.5-145.3,85.3-166,85.3-166c-8.7,54.8-1.4,176.3-1.4,176.3
		c10,4.4,22.9,0,22.9,0c0.8-89.8,14.6-168.1,30.9-229.8c-40.9-0.9-62.7-14.9-69.8-20.5C625.3,1233.4,569.6,1413.2,569.6,1413.2z"/>
	<path class="st8" d="M669.9,1011.2c-7.7,38.6-5,107.8-3.1,139.3c0.5,8.9-5.7,21.2-10.7,29.5c-0.8,1.3-0.3,3,1.1,3.7
		c8.4,4.3,36.7,17.6,69.6,19.3c2.2,0.1,4.2-1.4,4.7-3.5c24.4-91.1,52.7-149.3,52.7-149.3C752.9,1000.4,669.9,1011.2,669.9,1011.2z"
		/>
	<linearGradient id="SVGID_3_" gradientUnits="userSpaceOnUse" x1="638.3914" y1="1345.4457" x2="648.0812" y2="1326.0662">
		<stop  offset="0" style="stop-color:#53D8FF"/>
		<stop  offset="1" style="stop-color:#3840F7"/>
	</linearGradient>
	<path class="st11" d="M681,1249c-0.3,0-0.7-0.1-1-0.3c-0.9-0.6-1.2-1.7-0.6-2.7c0.3-0.5,8.2-13.2,24-20.8c1-0.5,2.1-0.1,2.6,0.9
		c0.5,1,0.1,2.1-0.9,2.6c-14.8,7.1-22.3,19.2-22.4,19.4C682.3,1248.7,681.7,1249,681,1249z"/>
	<linearGradient id="SVGID_4_" gradientUnits="userSpaceOnUse" x1="787.0609" y1="972.5723" x2="600.061" y2="1191.5721">
		<stop  offset="0" style="stop-color:#FF928E"/>
		<stop  offset="1" style="stop-color:#FEB3B1"/>
	</linearGradient>
	<path class="st12" d="M621.3,1122.1c2.5,18,9.8,37.6,24.5,58.5l5.6-4.6c0,0-6.5-26.2-2.8-55.9
		C639.5,1118.4,628.8,1120.2,621.3,1122.1z"/>
	<path class="st8" d="M678.5,1058.9l-8.7-47.7c0,0-57.8,44.2-48.6,110.9c7.6-1.9,18.3-3.7,27.3-2
		C651.3,1098.8,659.2,1075.5,678.5,1058.9z"/>
	<path class="st8" d="M784.2,1050.3l-22.3,48.1c3.6,29,19.2,41.6,36,46.4c1-13.2,4.4-23.9,7.5-31.3
		C783.9,1091.3,784.2,1050.3,784.2,1050.3z"/>
	<linearGradient id="SVGID_5_" gradientUnits="userSpaceOnUse" x1="885.7657" y1="1056.8549" x2="698.7657" y2="1275.8549">
		<stop  offset="0" style="stop-color:#FF928E"/>
		<stop  offset="1" style="stop-color:#FEB3B1"/>
	</linearGradient>
	<path class="st13" d="M805.3,1113.5c-3.1,7.4-6.4,18.1-7.5,31.3c44.8,17.4,56.7-16.3,56.7-16.3l-8.3-1.5
		C827.5,1128.9,814.5,1122.9,805.3,1113.5z"/>
	<linearGradient id="SVGID_6_" gradientUnits="userSpaceOnUse" x1="742.7323" y1="980.1019" x2="742.1131" y2="1085.9702">
		<stop  offset="0" style="stop-color:#FF928E"/>
		<stop  offset="1" style="stop-color:#FEB3B1"/>
	</linearGradient>
	<path class="st14" d="M763.6,991l-10.8,39.6c-1.2,4.4-6,6.8-10.3,5.1c-4.6-1.8-10.5-4.4-15.5-7.1c-5.4-2.9-7.1-9.8-3.7-14.9
		l22.4-33.4L763.6,991z"/>
	<linearGradient id="SVGID_7_" gradientUnits="userSpaceOnUse" x1="828.0198" y1="976.2585" x2="750.0198" y2="982.2585">
		<stop  offset="0" style="stop-color:#FF928E"/>
		<stop  offset="1" style="stop-color:#FEB3B1"/>
	</linearGradient>
	<path class="st15" d="M787.2,960.9c0.1,0.7-9,45.2-9,45.2l-25.3-5.7l2.3-43.5C755.2,956.9,785.5,949.6,787.2,960.9z"/>
	<path class="st5" d="M760.9,966.6l-3,22.8c0,0.3,0,0.6,0,0.9c0.3,1.8,1.6,7.9,7.7,6.1c5.6-1.6,10.7-2.9,14.2-1.9
		c1.6,0.5,2.5,2.1,2.2,3.7c-0.8,4-2.9,13.1-5.8,20.7c-0.6,1.5-2.3,2.4-3.9,1.9c-4.8-1.4-14.8-4.6-22.3-9.1c-1-0.6-1.6-1.7-1.6-2.9
		c0.2-5.8,0.9-23.2,0.3-28.1c-0.5-4.6-6.2-7.4-8.6-8.3c-0.8-0.3-1.4-1-1.8-1.8c-1.1-2.8-2.7-9.4,5.6-12.1c1.7-0.6,2.7-2.4,2-4.2
		c-1.2-3.4-1.7-8.6,4.7-11.5c6.5-2.9,11.4,0.6,14,3.4c1.1,1.1,2.8,1.3,4.1,0.5c0.8-0.5,1.7-0.6,2.9,0.1c1.6,1,3.7,0.3,4.5-1.4
		c1.6-3.2,4.7-6.6,11.1-5.6c11.3,1.9,12.6,14.5,9.6,21.9c-3,7.4-15.2,4.6-21.3,0.8c-4.6-2.8-10.7,0.1-13.3,1.7
		C761.6,964.8,761,965.7,760.9,966.6z"/>
	
		<linearGradient id="SVGID_8_" gradientUnits="userSpaceOnUse" x1="328.0827" y1="2681.9001" x2="369.8817" y2="2639.0156" gradientTransform="matrix(0.9897 -0.1428 0.1428 0.9897 1.6639 -1579.7996)">
		<stop  offset="0" style="stop-color:#FF928E"/>
		<stop  offset="1" style="stop-color:#FEB3B1"/>
	</linearGradient>
	<path class="st16" d="M747.8,989c0,0,4.7-13.1-0.1-16.2c-4.8-3.2-11.9-1.5-10.3,7.9C739.3,992.5,747.8,989,747.8,989z"/>
	<linearGradient id="SVGID_9_" gradientUnits="userSpaceOnUse" x1="855.7251" y1="1138.5156" x2="876.027" y2="1138.5156">
		<stop  offset="0" style="stop-color:#F9B776"/>
		<stop  offset="1" style="stop-color:#F47960"/>
	</linearGradient>
	<path class="st17" d="M858.4,1148.2c2.3,1.8,10-1.9,14.7-4.5c2.3-1.2,3.4-3.9,2.6-6.4c-1.1-3.6-3-8.2-5.4-8.8
		C866.5,1127.5,849.1,1140.9,858.4,1148.2z"/>
	<path class="st4" d="M470.7,1228.5l541-145.5l21.7,79.5l-541.2,150.8c-11.5,3.2-23.6-2.3-28.8-13.1c-5.3-11-9.9-28-8.3-52.7
		C455.7,1238.4,462,1230.8,470.7,1228.5z"/>
	<path class="st4" d="M1176,1075.8l-73.4,3.2c-0.7,10,1.5,23.2,11.5,38.9l63.9-35.2C1181.4,1080.8,1179.9,1075.6,1176,1075.8z"/>
	<path class="st18" d="M1011.7,1082.9c-7.2,48.2,21.7,79.5,21.7,79.5l80.7-44.5c-9.9-15.7-12.2-28.9-11.5-38.9L1011.7,1082.9z"/>
	<path class="st5" d="M475.4,1252.7c-0.6-0.1-1.2-0.5-1.4-1.1c-0.2-0.8,0.3-1.7,1.1-1.9l517.5-138.1c0.8-0.2,1.7,0.3,1.9,1.1
		c0.2,0.8-0.3,1.7-1.1,1.9l-517.5,138.1C475.7,1252.7,475.5,1252.7,475.4,1252.7z"/>
	<path class="st5" d="M481.6,1283.7c-0.6-0.1-1.2-0.5-1.4-1.1c-0.2-0.8,0.3-1.7,1.1-1.9l517.5-138.1c0.8-0.2,1.7,0.3,1.9,1.1
		c0.2,0.8-0.3,1.7-1.1,1.9l-517.5,138.1C482,1283.7,481.8,1283.7,481.6,1283.7z"/>
	<linearGradient id="SVGID_10_" gradientUnits="userSpaceOnUse" x1="819.406" y1="1000.1912" x2="632.4053" y2="1219.1919">
		<stop  offset="0" style="stop-color:#FF928E"/>
		<stop  offset="1" style="stop-color:#FEB3B1"/>
	</linearGradient>
	<path class="st19" d="M649.1,1175.3l26.1-2.1l11.3,10.4c0,0-2.7,3.7-11,1.6c-8.4-2.1-19.8-2.6-19.8-2.6s-11.5,5.2-11.7-4.5
		L649.1,1175.3z"/>
	<path class="st5" d="M1578.6,1206.6c-0.2,0.4-13.3,10-13.3,10s2.9,20.6,14.6,28.8c12.9,8.9,31-7.4,31-7.4s14.5,3.4,22.1-26.7
		c1.8-6.9-8.4-7.5-20.7-6.2C1596.5,1206.8,1578.6,1206.6,1578.6,1206.6z"/>
	<path class="st8" d="M1545.6,1287c6.1-4.2,12.8-7.3,19.9-9.3c2.7-0.7,17.1,3.5,26,3.3c12.3-0.3,24.7-5.9,34.8-3.3
		c10,2.5,18.2,5.8,23,9.1c14.2,10.1,22.5,28.9,27.6,47.5c-9.6,9.9-21.7,14.3-21.7,14.3l-2.2,90.6l-53.6,27.4l-61.1-30.7l2.2-88.5
		c0,0-19.4-9-20.8-12.3C1518.2,1331.7,1528.4,1298.8,1545.6,1287z"/>
	<linearGradient id="SVGID_11_" gradientUnits="userSpaceOnUse" x1="1507.2059" y1="1315.2422" x2="1609.0088" y2="1561.1556">
		<stop  offset="0" style="stop-color:#FF928E"/>
		<stop  offset="1" style="stop-color:#FEB3B1"/>
	</linearGradient>
	<path class="st20" d="M1520.5,1334.6c0,0-26,72.1,33.3,101.8c12.3-1.6,7.6-22.1,7.6-22.1s-25.8-5.7-18-65.9
		C1536.2,1342.6,1520.5,1334.6,1520.5,1334.6z"/>
	
		<linearGradient id="SVGID_12_" gradientUnits="userSpaceOnUse" x1="-7090.7524" y1="1314.7136" x2="-6988.9497" y2="1560.6271" gradientTransform="matrix(-1 0 0 1 -5403.0742 0)">
		<stop  offset="0" style="stop-color:#FF928E"/>
		<stop  offset="1" style="stop-color:#FEB3B1"/>
	</linearGradient>
	<path class="st21" d="M1675.7,1334.6c0,0,17.9,75.3-33.3,101.8c-12.3-1.6-7.6-22.1-7.6-22.1s20.8-10.2,18-65.9
		C1659.9,1342.6,1675.7,1334.6,1675.7,1334.6z"/>
	<linearGradient id="SVGID_13_" gradientUnits="userSpaceOnUse" x1="1537.5424" y1="1401.8219" x2="1655.0201" y2="1401.8219">
		<stop  offset="0" style="stop-color:#DAE3FE"/>
		<stop  offset="1" style="stop-color:#E9EFFD"/>
	</linearGradient>
	<path class="st22" d="M1642.3,1441.5h-92c-7,0-12.7-5.7-12.7-12.7v-53.9c0-7,5.7-12.7,12.7-12.7h92c7,0,12.7,5.7,12.7,12.7v53.9
		C1655,1435.8,1649.3,1441.5,1642.3,1441.5z"/>
	<path class="st4" d="M1706.5,1465c-13.4-3.1-44.5-1.4-44.5-1.4l-1.3,3.4l-2.1,17c0,0,29.6,5.3,44.2,5.3c1.5,0,2.8-0.2,4.1-0.6
		c0.4-0.4,0.9-0.8,1.3-1.3C1714.4,1480.7,1712.6,1470.8,1706.5,1465z"/>
	<linearGradient id="SVGID_14_" gradientUnits="userSpaceOnUse" x1="1695.4539" y1="1375.6771" x2="1636.7311" y2="1534.7344">
		<stop  offset="0" style="stop-color:#FF928E"/>
		<stop  offset="1" style="stop-color:#FEB3B1"/>
	</linearGradient>
	<path class="st23" d="M1653.1,1462.6l5.3,0.2c2.8,0.1,5.5,1.5,7.4,3.8c1.9,2.3,2.9,5.4,2.7,8.5c-0.1,2.5-1.2,4.8-2.8,6.5
		c-1.7,1.7-3.9,2.5-6.2,2.3l-8.1-0.6L1653.1,1462.6z"/>
	<path class="st4" d="M1476.2,1463.4c13.5-2.7,44.5-0.1,44.5-0.1l1.2,3.5l1.7,17.1c0,0-29.7,4.4-44.3,4c-1.5,0-2.8-0.3-4.1-0.7
		c-0.4-0.4-0.9-0.8-1.3-1.3C1467.9,1478.8,1469.9,1469,1476.2,1463.4z"/>
	<linearGradient id="SVGID_15_" gradientUnits="userSpaceOnUse" x1="1513.9823" y1="1473.2347" x2="1530.83" y2="1473.2347">
		<stop  offset="0" style="stop-color:#FF928E"/>
		<stop  offset="1" style="stop-color:#FEB3B1"/>
	</linearGradient>
	<path class="st24" d="M1529.7,1462.6l-5.3,0.1c-2.8,0-5.5,1.3-7.5,3.6c-2,2.3-3,5.3-2.9,8.4c0.1,2.5,1,4.9,2.7,6.6
		c1.6,1.7,3.8,2.6,6.1,2.5l8.1-0.3L1529.7,1462.6z"/>
	<path class="st5" d="M1710.3,1411.7c-6.1-14-21-16.3-33.7-9.7c-0.2,0.3-80.6,41.5-151.5,59.5c2,6.5,3.1,13.4,3.3,20.2
		c0,1.5,0,3-0.1,4.5c54.4-2.8,113.4-20.9,164.1-36.9C1708.1,1444.3,1717.1,1427.2,1710.3,1411.7z"/>
	<path class="st5" d="M1653.5,1482.8c-0.2-7.8,1.3-15.1,4.6-21.9c0.1-0.3,0.2-0.6,0.3-0.9c-4-1.3-9.3-3-16.1-5.3
		c-50.3-17.2-88.7-34.6-125.4-54.6c-14.2-7.8-30.4-2.6-35,14.3c-4.1,15,4.9,27.9,18.4,32.4c40.6,13.5,19.4,9.8,32.7,14
		c35.6,11,79.9,21,120.6,23.8C1653.5,1483.9,1653.5,1483.3,1653.5,1482.8z"/>
	<linearGradient id="SVGID_16_" gradientUnits="userSpaceOnUse" x1="1593.0812" y1="1224.5276" x2="1598.0812" y2="1318.5275">
		<stop  offset="0" style="stop-color:#FF928E"/>
		<stop  offset="1" style="stop-color:#FEB3B1"/>
	</linearGradient>
	<path class="st25" d="M1565.5,1277.7c0,0,5.4,23.5,31.7,23c26.8-0.5,29.2-23,29.2-23l-17.5-3.7l-1.5-19.5l-26.3,1.9l-0.5,18.5
		L1565.5,1277.7z"/>
	<linearGradient id="SVGID_17_" gradientUnits="userSpaceOnUse" x1="1604.931" y1="1187.4926" x2="1597.431" y2="1256.9928">
		<stop  offset="0" style="stop-color:#FF928E"/>
		<stop  offset="1" style="stop-color:#FEB3B1"/>
	</linearGradient>
	<path class="st26" d="M1587.1,1203.2c0,0-25.3,49.1,4.7,61c21.2,8.4,34.5-32.6,30.5-43.7c-6.1-17.2-10.2-15.1-10.2-15.1
		L1587.1,1203.2z"/>
	<path class="st4" d="M1628.5,1198.7c12.5,3.4,1.8,30.6-17,24.2c-18.8-6.4-26.2-6.3-29.2-1.2c-2.9,5.2-3.6,23.6-9.9,14.5
		c-7-10-10.9-29.9-2.3-36.4c7.7-5.8,9.4-14.7,18.6-14.4c12.2,0.4,21.6-5,27.1-1.1C1622,1188.8,1619.3,1196.2,1628.5,1198.7z"/>
	<linearGradient id="SVGID_18_" gradientUnits="userSpaceOnUse" x1="1583.1161" y1="1185.1384" x2="1575.6161" y2="1254.6384">
		<stop  offset="0" style="stop-color:#FF928E"/>
		<stop  offset="1" style="stop-color:#FEB3B1"/>
	</linearGradient>
	<path class="st27" d="M1581.1,1226c0,0-5.4-5.8-6.3,1.2c-0.9,7,1.9,16,5.2,11.1S1581.1,1226,1581.1,1226z"/>
	<path class="st8" d="M1987.4,1080.1c0,0-62.7,42.9-76.2,22.3c-13.5-20.6,55-82.6,55-82.6L1987.4,1080.1z"/>
	<path class="st5" d="M2001.4,1484.4c0-0.3,0-0.6,0.1-0.9c4.7-18.8,28.2-30.5,28.2-30.5l9.3,0.7c5.4,16.5,4.7,26.7,3.8,31.2
		c0,0.1-0.1,0.2-0.1,0.4C2035.1,1486,2019.3,1486.5,2001.4,1484.4z"/>
	
		<linearGradient id="SVGID_19_" gradientUnits="userSpaceOnUse" x1="-2019.5773" y1="1421.6149" x2="-2027.6067" y2="1491.6901" gradientTransform="matrix(-1 0 0 1 12.199 0)">
		<stop  offset="0" style="stop-color:#FF928E"/>
		<stop  offset="1" style="stop-color:#FEB3B1"/>
	</linearGradient>
	<path class="st28" d="M2042.8,1439.9l-3.9,19c-0.3,1.4-1.4,2.4-2.7,2.6c-1.6,0.1-3.8,0.2-6.1-0.1c-2-0.3-3.5-2.4-3.1-4.6l2.7-16.9
		H2042.8z"/>
	<path class="st5" d="M1918.9,1483.6c0.1-0.1,0.1-0.3,0.2-0.4c5-7,17.7-20.8,42.8-26.9l12-0.4c0,0,5.4,9.3,5.5,26.6
		c-2.7,1.1-8.1,2.3-18.4,2.6C1945.2,1485.6,1926.4,1484.2,1918.9,1483.6z"/>
	
		<linearGradient id="SVGID_20_" gradientUnits="userSpaceOnUse" x1="-1954.1722" y1="1429.1093" x2="-1962.2017" y2="1499.1842" gradientTransform="matrix(-1 0 0 1 12.199 0)">
		<stop  offset="0" style="stop-color:#FF928E"/>
		<stop  offset="1" style="stop-color:#FEB3B1"/>
	</linearGradient>
	<path class="st29" d="M1976.2,1437.7c-0.1,0.9-1.8,14.5-2.4,19.8c-0.2,1.3-1.1,2.2-2.2,2.4c-2,0.2-5.4,0.5-8.3-0.1
		c-1.6-0.3-2.7-1.8-2.7-3.6v-21.4L1976.2,1437.7z"/>
	<path class="st4" d="M1985.9,1188.8c0,0-29,110.4-28.5,249.2c0,2.5,1.8,4.7,4.3,5.2c3.7,0.8,9,1.7,13.5,1.6
		c2.4-0.1,4.4-1.8,4.8-4.2c4.1-23.9,27.4-158.4,40.8-180.2c0,0,8.8,119.8,6,182c-0.1,1.5,1.1,2.9,2.6,3.1c2.3,0.3,6.1,0.5,10.8,0
		c1.8-0.2,3.3-1.6,3.5-3.3c2.9-20.2,19.6-140.5,18.9-227.1c0-4.9-12.9-26.1-12.9-26.1H1985.9z"/>
	<path class="st8" d="M1965.9,1019.6c40-5.8,83.9-0.5,105.2,2.2c6.9,0.9,13.2,4.3,17.8,9.5c18,20.9,57.6,78,11,135.5
		c-6-3.3-14.4-8.6-20.2-14.8c5.2-14.5,5.6-33.1-5.2-55.8c-0.4,1.8-0.8,3.6-1.4,5.3c-14.9,47.1-15.7,86.4-15.6,95.4
		c0,1.2-0.7,2.3-1.9,2.8c-19.6,7.8-57.3,3.2-69.9,1.3c-2.3-0.3-3.9-2.5-3.6-4.8c4.5-32.3-10.7-79.4-22.7-110.4
		C1954.6,1073.7,1963.4,1023.1,1965.9,1019.6z"/>
	<linearGradient id="SVGID_21_" gradientUnits="userSpaceOnUse" x1="2017.9778" y1="959.9318" x2="2019.3112" y2="1057.2651">
		<stop  offset="0" style="stop-color:#FF928E"/>
		<stop  offset="1" style="stop-color:#FEB3B1"/>
	</linearGradient>
	<path class="st30" d="M2031.6,974.2l5.5,45.6c0.3,2.1-1,4-3,4.6c-6,1.8-18.8,4.4-30.5-0.4c-2.2-0.9-3.5-3.3-2.9-5.7l7-32.1
		L2031.6,974.2z"/>
	<path class="st31" d="M2076.4,1092.8c7.9-21.6,5-47.7,5-47.9l-2.2,0.2c0,0.3,2.8,25.8-4.9,46.9L2076.4,1092.8z"/>
	<path class="st5" d="M2021.7,1257.6c0.5,0,0.9-0.3,1.1-0.8c2.4-9.3,20.4-19.5,20.6-19.6c0.5-0.3,0.7-1,0.4-1.5
		c-0.3-0.5-1-0.7-1.5-0.4c-0.8,0.4-19,10.8-21.7,21c-0.2,0.6,0.2,1.2,0.8,1.3C2021.5,1257.6,2021.6,1257.6,2021.7,1257.6z"/>
	
		<linearGradient id="SVGID_22_" gradientUnits="userSpaceOnUse" x1="-2087.6321" y1="1181.3593" x2="-2019.067" y2="1181.3593" gradientTransform="matrix(-1 0 0 1 12.199 0)">
		<stop  offset="0" style="stop-color:#FF928E"/>
		<stop  offset="1" style="stop-color:#FEB3B1"/>
	</linearGradient>
	<path class="st32" d="M2079.7,1152.2c5.8,6.1,14.2,11.4,20.2,14.8c-8.9,11-20.9,22-36.9,32.8l-1.9,4.3c-1.7,3.7-5.3,6.2-9.3,6.4
		c-22.3,1.1-28.4-3.7-7.9-18C2043.8,1192.4,2070,1179.4,2079.7,1152.2z"/>
	
		<linearGradient id="SVGID_23_" gradientUnits="userSpaceOnUse" x1="-773.8213" y1="6148.166" x2="-730.2888" y2="6148.166" gradientTransform="matrix(-0.4572 0.8893 0.8893 0.4572 -3902.75 -1064.0745)">
		<stop  offset="0" style="stop-color:#FF928E"/>
		<stop  offset="1" style="stop-color:#FEB3B1"/>
	</linearGradient>
	<path class="st33" d="M1893.3,1045.7c0,0,31.5,25.5,39.3,35.2c7.8,9.7,3,29.8-12.2,27.2c-15.2-2.6-38.6-50.8-38.6-50.8
		L1893.3,1045.7z"/>
	<path class="st7" d="M1941.8,1011.8c0,0-52.2,50.2-65.5,59.4c-15.5,10.7-35.9-10.4-28.8-22.2c7.1-11.8,60.3-49.1,60.3-49.1
		L1941.8,1011.8z"/>
	<polygon class="st8" points="1931.6,952.4 1811.1,834.2 1748.6,970.2 1910.6,1006.9 	"/>
	
		<ellipse transform="matrix(0.4281 -0.9037 0.9037 0.4281 202.0423 2123.5251)" class="st34" cx="1778.8" cy="902.1" rx="76.9" ry="15.7"/>
	<path class="st8" d="M1747,966.4c1.9-0.7,7.1-4.4,15.6-16.3c8.3-11.5,17.2-27.1,25.3-44.1c8.1-17,14.5-33.9,18.1-47.5
		c3.8-14.1,3.4-20.5,2.7-22.4c-1.9,0.7-7.1,4.4-15.6,16.3c-8.3,11.5-17.2,27.1-25.3,44.1c-8.1,17-14.5,33.9-18.1,47.5
		C1745.9,958.1,1746.4,964.5,1747,966.4z"/>
	<path class="st7" d="M1956.2,960.5c-6.4-4-16-8.9-27.7-11.5c-5.1,19.7-14.6,38.4-27.8,56l29.7,14c4.7,2.2,10.4,0.7,13.3-3.6
		c5.9-8.7,15.2-23.5,19.2-37.1C1965,971.6,1962.3,964.3,1956.2,960.5z"/>
	<path class="st2" d="M1931.7,966.3l23.1,10.9c0.9,0.4,2,0.3,2.8-0.3c0.8-0.6,1.2-1.6,1.1-2.5c-0.1-0.6-0.6-1-1.2-0.9
		c-0.6,0.1-1,0.6-0.9,1.2c0,0.3-0.2,0.5-0.3,0.6c-0.1,0.1-0.3,0.2-0.6,0.1l-23.1-10.9c-0.3-0.2-0.5-0.5-0.3-0.8l0.8-1.6
		c0.2-0.3,0.5-0.5,0.8-0.3l23.3,11c0.5,0.2,1.1,0,1.4-0.5c0.2-0.5,0-1.1-0.5-1.4l-23.3-11c-1.4-0.6-3-0.1-3.6,1.3l-0.8,1.6
		C1929.8,964.1,1930.4,965.7,1931.7,966.3z"/>
	<path class="st2" d="M1928.9,977.5l23.1,10.9c0.9,0.4,2,0.3,2.8-0.3c0.8-0.6,1.2-1.6,1.1-2.5c-0.1-0.6-0.6-1-1.2-0.9
		c-0.6,0.1-1,0.6-0.9,1.2c0,0.3-0.2,0.5-0.3,0.6c-0.1,0.1-0.3,0.2-0.6,0.1l-23.1-10.9c-0.3-0.2-0.5-0.5-0.3-0.8l0.8-1.6
		c0.2-0.3,0.5-0.5,0.8-0.3l23.3,11c0.5,0.2,1.1,0,1.4-0.5c0.2-0.5,0-1.1-0.5-1.4l-23.3-11c-1.4-0.6-3-0.1-3.6,1.3l-0.8,1.6
		C1927,975.3,1927.6,976.9,1928.9,977.5z"/>
	<path class="st35" d="M1912.2,939.2c0.4,0.2,0.9,0.1,1.2-0.2c0.4-0.4,0.4-1.1-0.1-1.5l-92.7-86.5c-0.4-0.4-1.1-0.4-1.5,0.1
		c-0.4,0.4-0.4,1.1,0.1,1.5L1912,939C1912,939.1,1912.1,939.2,1912.2,939.2z"/>
	<path class="st35" d="M1924.1,952.2c0.4,0.2,0.8,0.1,1.1-0.2c0.4-0.4,0.5-1,0.1-1.5l-4.5-5c-0.4-0.4-1-0.5-1.5-0.1
		c-0.4,0.4-0.5,1-0.1,1.5l4.5,5C1923.9,952.1,1924,952.2,1924.1,952.2z"/>
	<path class="st2" d="M1921.2,988.5l23.1,10.9c0.9,0.4,2,0.3,2.8-0.3c0.8-0.6,1.2-1.6,1.1-2.5c-0.1-0.6-0.6-1-1.2-0.9
		c-0.6,0.1-1,0.6-0.9,1.2c0,0.3-0.2,0.5-0.3,0.6c-0.1,0.1-0.3,0.2-0.6,0.1l-23.1-10.9c-0.3-0.2-0.5-0.5-0.3-0.8l0.8-1.6
		c0.2-0.3,0.5-0.5,0.8-0.3l23.3,11c0.5,0.2,1.1,0,1.4-0.5c0.2-0.5,0-1.1-0.5-1.4l-23.3-11c-1.4-0.6-3-0.1-3.6,1.3l-0.8,1.6
		C1919.3,986.3,1919.8,987.9,1921.2,988.5z"/>
	<path class="st2" d="M1912.7,1000.8l23.1,10.9c0.9,0.4,2,0.3,2.8-0.3c0.8-0.6,1.2-1.6,1.1-2.5c-0.1-0.6-0.6-1-1.2-0.9
		c-0.6,0.1-1,0.6-0.9,1.2c0,0.3-0.2,0.5-0.3,0.6c-0.1,0.1-0.3,0.2-0.6,0.1l-23.1-10.9c-0.3-0.2-0.5-0.5-0.3-0.8l0.8-1.6
		c0.1-0.3,0.5-0.5,0.8-0.3l23.3,11c0.5,0.2,1.1,0,1.4-0.5c0.2-0.5,0-1.1-0.5-1.4l-23.3-11c-1.4-0.6-3-0.1-3.6,1.3l-0.8,1.6
		C1910.8,998.6,1911.4,1000.2,1912.7,1000.8z"/>
	<path class="st2" d="M1857.8,1063.4c1.1,0.5,2.2,0.9,3.5,1.2c5.3,1.2,10.7-0.1,14.9-3.6l37.9-32.3c0.4-0.4,0.5-1,0.1-1.5
		c-0.4-0.4-1-0.5-1.5-0.1l-37.9,32.3c-3.6,3.1-8.4,4.2-13,3.2c-4.6-1.1-8.3-4.1-10.1-8.4c-0.1-0.2-0.2-0.5-0.3-0.7
		c-0.2-0.5-0.8-0.8-1.4-0.6c-0.5,0.2-0.8,0.8-0.6,1.4c0.1,0.3,0.2,0.5,0.3,0.8C1851.4,1058.7,1854.2,1061.7,1857.8,1063.4z"/>
	<path class="st2" d="M1918.5,1024.1c0.4,0.2,0.8,0.1,1.1-0.1l4.2-3.6c0.4-0.4,0.5-1,0.1-1.5c-0.4-0.4-1-0.5-1.5-0.1l-4.2,3.6
		c-0.4,0.4-0.5,1-0.1,1.5C1918.3,1023.9,1918.4,1024,1918.5,1024.1z"/>
	
		<linearGradient id="SVGID_24_" gradientUnits="userSpaceOnUse" x1="-1874.7084" y1="1033.7183" x2="-1848.2949" y2="1033.7183" gradientTransform="matrix(-1 0 0 1 12.199 0)">
		<stop  offset="0" style="stop-color:#FF928E"/>
		<stop  offset="1" style="stop-color:#FEB3B1"/>
	</linearGradient>
	<path class="st36" d="M1881.4,1025.6c0,0-8-6.8-14.3,0c-6.3,6.8-7.5,18.7-6.2,19.2C1862.2,1045.4,1900.9,1035.8,1881.4,1025.6z"/>
	<g>
		<polygon class="st34" points="1657.4,846.9 1708.2,844 1701,860.1 1734.9,868.6 1678.9,883.2 1686.7,860.6 		"/>
		<polygon class="st34" points="1661.8,923.3 1699.3,905.4 1698.9,919.8 1726.9,915.6 1689.2,944 1688.1,924.5 		"/>
		<polygon class="st34" points="1726,788.3 1760,812.1 1747.3,818.8 1764.6,841.2 1721.4,822.3 1737.9,811.8 		"/>
	</g>
	
		<linearGradient id="SVGID_25_" gradientUnits="userSpaceOnUse" x1="-1270.0199" y1="-298.3526" x2="-1216.6864" y2="-322.3526" gradientTransform="matrix(-0.7185 -0.6955 -0.6955 0.7185 1064.2931 726.5309)">
		<stop  offset="0" style="stop-color:#FF928E"/>
		<stop  offset="1" style="stop-color:#FEB3B1"/>
	</linearGradient>
	<path class="st37" d="M2008.4,937.4c-0.4,0.4-12.6,26.3-20.1,42.3c-3.1,6.6,0.2,14.5,7.2,16.8l6.4,2.1c11.7,3.9,24.4-1.7,29.4-12.9
		l13-29.2C2044.2,956.4,2017.5,927.9,2008.4,937.4z"/>
	<path class="st5" d="M2051.2,958.4c3.3-2.4,6.8-6.8,3-13.5c-3.9-6.8-10.3-7.1-14.6-6.3c-1.9,0.3-3.9-0.6-4.7-2.4
		c-0.4-0.8-1-1.4-2.3-1.6c-2.3-0.4-3.9-2.4-3.6-4.7c0.6-3.9-0.2-9-6.6-12.2c-11.8-5.8-21.3,5-23.5,13.8c-2.1,8.8,11,14.3,19.1,15
		c6,0.5,9.5,6.8,11,10.1c0.5,1.2,0.5,2.6-0.1,3.7l-4.3,7.9c0.6,3,1.3,6,2.6,8.8c0.9,2,2.2,3.3,3.7,4.1c3.5-3.7,10.2-2.6,13.2-1.9
		c1.2,0.3,2.4,0.1,3.4-0.6c3-2,8.1-6.8,2.9-14.4C2048.8,962.4,2049.3,959.8,2051.2,958.4z"/>
	
		<linearGradient id="SVGID_26_" gradientUnits="userSpaceOnUse" x1="-1275.5974" y1="-310.7417" x2="-1222.2637" y2="-334.7418" gradientTransform="matrix(-0.7185 -0.6955 -0.6955 0.7185 1064.2931 726.5309)">
		<stop  offset="0" style="stop-color:#FF928E"/>
		<stop  offset="1" style="stop-color:#FEB3B1"/>
	</linearGradient>
	<path class="st38" d="M2026,989.6c0,0,4.4-15.1,11-14.9c6.5,0.2,12,6.5,4.2,14.2C2031.6,998.4,2026,989.6,2026,989.6z"/>
	<path class="st39" d="M2006.5,941.1c0.2,0,0.3,0,0.5-0.1c0.2-0.2,0.2-0.5,0-0.7c-2.5-2.5-3.6-5.2-3.3-8c0.7-6.2,8-11.1,8.1-11.1
		c0.2-0.1,0.3-0.4,0.1-0.6c-0.1-0.2-0.4-0.3-0.6-0.1c-0.3,0.2-7.8,5.1-8.5,11.8c-0.3,3.1,0.9,6,3.5,8.7
		C2006.4,941,2006.5,941,2006.5,941.1z"/>
</g>
</svg>
